PathFileType	4	(X/Y/Z)	path1_06_0-578.trc
DataRate	CameraRate	NumFrames	NumMarkers	Units	OrigDataRate	OrigDataStartFrame	OrigNumFrames
30	30	7	22	m	30	0	578
Frame#	Time	Hip			RHip			RKnee			RAnkle			RBigToe			RSmallToe			RHeel			LHip			LKnee			LAnkle			LBigToe			LSmallToe			LHeel			Neck			Head			Nose			RShoulder			RElbow			RWrist			LShoulder			LElbow			LWrist		
		X1	Y1	Z1	X2	Y2	Z2	X3	Y3	Z3	X4	Y4	Z4	X5	Y5	Z5	X6	Y6	Z6	X7	Y7	Z7	X8	Y8	Z8	X9	Y9	Z9	X10	Y10	Z10	X11	Y11	Z11	X12	Y12	Z12	X13	Y13	Z13	X14	Y14	Z14	X15	Y15	Z15	X16	Y16	Z16	X17	Y17	Z17	X18	Y18	Z18	X19	Y19	Z19	X20	Y20	Z20	X21	Y21	Z21	X22	Y22	Z22
1	0.0333333333333333	2.6058287858543596	0.8285477957241075	0.743194586071037	2.6071221211282842	0.8011669354188111	0.6498564888054318	2.5796104435362777	0.461923939809936	0.6502895288968669	2.6509059594068676	0.08941610484001175	0.6842499828676686	2.4555333954107534	0.015020789580140937	0.6439370698653673	2.5023282270760627	0.021600575035372386	0.5882186828136522	2.6960243051426716	0.02592205182564609	0.6704572188648792	2.5924085100181125	0.7964739228274611	0.8239688843255124	2.60204782719051	0.434116942556312	0.8285118926881494	2.6525471761002426	0.08713861622912625	0.8284366366020014	2.480321361460337	0.006684421199455765	0.8608374770111924	2.494345318580408	0.03459572142222774	0.9162486494673519	2.7068960354577944	0.031533913255124904	0.8476088891698161	2.5652701524430674	1.473565081600296	0.7621544553058616	2.5281215469624265	1.703465400684948	0.7786697494717695	2.4314806121468826	1.605517956564194	0.7187157004474045	2.6111602624184895	1.371182355322227	0.5835751562794746	2.6065333453607096	1.0765458862574084	0.5363446647980983	2.5854989594529	0.8363048107989351	0.5611440625221191	2.5847585385461143	1.340736950989367	0.9007058311304034	2.6203352624478824	1.0658799491967343	0.9571133959331077	2.5974589567044952	0.8291212214804924	0.9549766452420406
2	0.0666666666666666	2.606230515834775	0.8310656162617351	0.7454063520188622	2.609766265368779	0.8007809251323084	0.6597719988928836	2.5793451002490295	0.46528249103158686	0.6513513637537977	2.6473734546237093	0.09472209595835959	0.6803708955229878	2.45482080423449	0.02049078831141198	0.6427355778457621	2.500621533037528	0.022877849766552195	0.5878238709009749	2.696370843760547	0.027268501631599558	0.6752708432582774	2.594277111246331	0.7991000303410645	0.8286023508323919	2.5993811737493937	0.4384845428408022	0.8316587784246412	2.65100198941543	0.08978401176181561	0.833143849290765	2.4810536707734054	0.0081968589956776	0.8604539972706593	2.503272803183477	0.026924943856502914	0.9158227168375689	2.7031940266068655	0.029854519826509517	0.8438974042649015	2.5580475948628583	1.4644831643445118	0.7576393498374182	2.514070006098658	1.6997372927209469	0.7628429541128469	2.432245143060405	1.6054654929025487	0.7234070295357905	2.6122870984934456	1.3703892038754175	0.5863688988862258	2.606335370148221	1.0761070046343337	0.5356204624720491	2.5823838203890706	0.8388747831350613	0.5511313889947805	2.580647154008224	1.3427080015360602	0.9077599907983912	2.6199862907641087	1.0669794003104396	0.9562747334657	2.5996859873121116	0.833524611004839	0.9553067549367271
3	0.1	2.606608266264453	0.8330106670415919	0.7473326615113012	2.61202237096595	0.8004969462995961	0.6678008969325445	2.5790251246615132	0.4679407143477003	0.6521241571817675	2.643891402025384	0.09936484661691719	0.6764487453346056	2.4543071542748565	0.024901734700259234	0.6417452287247354	2.49945099082485	0.0238290613972563	0.5874541377980742	2.696977311463001	0.02821030472480674	0.6791407940391028	2.5956586529287096	0.8011961646909109	0.8324593785485512	2.5981626335657393	0.44113987507959174	0.8344683994184846	2.6495641133181715	0.09209168873488853	0.8364549303667708	2.481750381162418	0.009170745059975938	0.8601072400265725	2.5100981037477164	0.021063676606569878	0.9156326739840405	2.6998151611212777	0.028851899291469328	0.8402855359311416	2.55233636735094	1.4571039444632246	0.7539405010860987	2.501583329824438	1.6957603109903667	0.7515766904419227	2.4328266890148305	1.6054910238157825	0.7268548461155937	2.613215367708439	1.3696882295192478	0.5885815239200476	2.60644027495451	1.0757230492715621	0.535137807541193	2.579959770730861	0.8409192185678277	0.5430325159208198	2.5759044157986764	1.3442378267069215	0.9149098322086691	2.619687079167211	1.0677940696419563	0.9555720742197822	2.601564610640157	0.8370303705266076	0.9555879063190258
4	0.1333333333333333	2.6069156616984	0.8341663034699455	0.7487993159147777	2.6136355396622446	0.8003476396482373	0.6730152478728101	2.578680023771099	0.4696057746385355	0.6525442457886234	2.640533437807871	0.10304822901072741	0.6725387731577837	2.4540421986817513	0.027742724464349063	0.6410617077124917	2.4989104045672503	0.024332685512097572	0.5870857959509593	2.6979077306383994	0.02849411267696114	0.6814594525463978	2.5963152002339007	0.8025172126152201	0.8351420067332068	2.5984028372964336	0.4418616209409712	0.8367772918106993	2.6478872742301256	0.09421058810386916	0.8380382089114209	2.4822105192682478	0.00940155356306915	0.8600208035222826	2.5138439430513624	0.017881353260673718	0.915710817460475	2.696894900199701	0.028762288327267703	0.836864444940931	2.54871869794657	1.4521767366198957	0.7514682489947213	2.4924020068403787	1.6922123769993005	0.7456730898257609	2.4331734017466116	1.605619145621356	0.7285706558036399	2.6138861387831374	1.3691142391041768	0.5899116866292854	2.6068831923504336	1.0755026890353943	0.5350179735727391	2.5784599231459775	0.8422126958867564	0.5377335611352919	2.5709029624027298	1.3451638327699929	0.9214794042870891	2.6194860011965364	1.0682156720689782	0.9550966615448395	2.6029005592595134	0.8391976172360365	0.9558045506705352
5	0.1666666666666666	2.607126771535518	0.8346517201578338	0.7497714138705847	2.614524124055443	0.8003369092673207	0.675552890960332	2.5783884045990373	0.47039965791896154	0.6527613984358518	2.6374187543983014	0.10582564765927532	0.6688230692337354	2.453983301692518	0.029114211930199703	0.640665579100167	2.4987576672543983	0.024446500779635533	0.5867094325612493	2.6989591431187097	0.02809397505880929	0.6820553943321944	2.5963128992716973	0.8031610614785086	0.8366810829459161	2.5989490665839843	0.4417402357889333	0.8384020842057505	2.646035093694386	0.09614938907824916	0.8388043067924841	2.482296669332867	0.008988526696533928	0.8604446033390123	2.5147040443341124	0.01711318380893478	0.9156810670749642	2.6946436451925795	0.02929720978671886	0.8339266196197761	2.546846442053004	1.4494661609566457	0.7501538372464146	2.487518558381439	1.690100038686821	0.7429792313164196	2.4333120676036124	1.6058425054652432	0.7287891541428746	2.614349249439872	1.3686546569096214	0.5903746006977917	2.6074615283330087	1.0755137076659798	0.5352063291244721	2.5777061354428916	0.8428343112794355	0.5350236687704493	2.56680977884725	1.3455880267932963	0.9262724747039942	2.619421720454181	1.06830147416792	0.9548619808733152	2.603703706195888	0.8401175510990143	0.9559722283152942
6	0.2	2.607282590011661	0.8346719345353169	0.7503125120429278	2.6147655952891378	0.8004376986559132	0.6761054793454818	2.5781985448646454	0.47058026830942906	0.6529333328488036	2.634836759155453	0.10775145969731828	0.6656907253245484	2.454091817438188	0.029428455520601304	0.6404765068069336	2.4987774080674625	0.02426377323024974	0.5863668797968725	2.699901588728437	0.02718520557777945	0.6812341448390967	2.5958921049833137	0.8033482146250194	0.837316861443754	2.59892499000282	0.44174028007459293	0.8393172491057378	2.6447551068419517	0.09743349540939092	0.8398125240847507	2.482128391054687	0.00816305873207986	0.8612825185715841	2.51351557789313	0.017853932030821383	0.9151013850193097	2.693245599582357	0.030032262458998336	0.8317889692381801	2.546042151762419	1.4483340585346525	0.7496673488405257	2.4868704712132597	1.6900559762012295	0.7407680485519555	2.4332688594725225	1.60613998473198	0.7280612284875568	2.6146319980704122	1.368257688481993	0.5901817974907073	2.607958044815496	1.0756796228011354	0.5355275034118309	2.577423827748085	0.8429916987999391	0.5341627479475727	2.564600739933668	1.3456975515952114	0.9284956082505496	2.619493118503337	1.0681722028641327	0.9548085780366549	2.6040986332319984	0.8401799790696244	0.9561147599748108
7	0.2333333333333333	2.607450777716238	0.8343814448439238	0.750535752457099	2.6145204863315112	0.8005735584430494	0.6754304280081002	2.5780892033131475	0.47037619541328446	0.6530941988688482	2.633084097443049	0.10882741881240529	0.6634939758402177	2.4543058821585833	0.029127230781269265	0.640388358055331	2.4988785398083975	0.023863720396622955	0.586096763915159	2.7006506720924803	0.026090941984772496	0.6797123773855874	2.595340205959315	0.8032262710531556	0.8372930736509	2.5983690498918874	0.44201247681204364	0.839836113719006	2.6445199605390757	0.0977803396712301	0.8413068271016678	2.4818941992568555	0.007195722154810083	0.8620825600001367	2.5112254507065814	0.019264841720708293	0.9140350826011455	2.6926340562536257	0.030723727711437887	0.8304882096966539	2.5457668520745633	1.448192940823593	0.7496720851800157	2.4898450484815755	1.6922558155578535	0.7369906379151541	2.4330773667960233	1.6064518988944723	0.7269679333093805	2.6147096912601615	1.3678572798734745	0.5896414840339724	2.608258677986915	1.075862070293436	0.5358136981607716	2.5773985773911283	0.8429053885231949	0.5343753457864586	2.564457447578293	1.3456478708878024	0.9282510305244647	2.619625768501213	1.0679656539358497	0.9548455734455954	2.6042077186862933	0.8398194512319601	0.9562438723015647
